<svg width="86" height="86" viewBox="0 0 86 86" fill="none" xmlns="http://www.w3.org/2000/svg">
<rect width="86" height="86" rx="10" fill="white"/>
<path fill-rule="evenodd" clip-rule="evenodd" d="M31.9078 54.3786C32.0146 54.3964 32.1037 54.4676 32.068 54.5745C32.0502 54.6635 31.9612 54.9484 31.8544 55.1977C31.7476 55.4469 31.5873 56.0345 31.4805 56.5331C31.3736 57.0138 31.1956 58.0465 31.0888 58.7943C30.9997 59.5778 30.9107 63.7977 30.9107 76.5641H20.3165C14.4941 76.5641 9.66888 76.5819 9.57985 76.5997C9.50863 76.6353 9.38399 72.1662 9.31277 66.6821C9.24155 61.1981 9.22374 56.444 9.36619 55.5538H18.0374C24.4652 55.536 27.1716 55.4825 28.4179 55.3045C29.3438 55.162 30.4656 54.895 30.9107 54.6991C31.3558 54.5211 31.801 54.3786 31.9078 54.3786ZM9.36619 9.25977L30.6436 9.34879L30.7326 18.9637C30.8395 28.3115 30.8395 28.6142 31.2312 29.914C31.4627 30.644 31.7119 31.3919 31.801 31.5521C31.89 31.7302 31.9078 31.9082 31.8366 31.9438C31.7654 31.9794 31.0175 31.8014 28.685 31.0892L9.45521 30.8933L9.4018 20.0676L9.36619 9.25977ZM47.6478 9.27757V17.5037C47.6478 22.4536 47.5765 26.1393 47.4697 26.7268C47.3629 27.261 47.1314 28.0266 46.9355 28.4184C46.7397 28.8101 46.2767 29.3442 45.9206 29.5935C45.5111 29.8784 44.7811 30.1633 44.0867 30.2879C43.1964 30.4482 42.6979 30.4482 41.95 30.3057C41.4159 30.1811 40.6502 29.914 40.2763 29.7003C39.8134 29.4333 39.4217 29.0237 39.1546 28.5074C38.9409 28.0622 38.656 27.2966 38.567 26.8159C38.4602 26.3173 38.3177 22.3111 38.2465 17.8954C38.1397 11.2362 38.1575 9.81173 38.3712 9.56246C38.5848 9.31318 39.1368 9.27757 47.6478 9.27757ZM76.5815 9.3666V30.377L67.6788 30.466C61.6962 30.5372 58.4022 30.644 57.6188 30.8043C56.9778 30.9289 55.9985 31.196 55.4465 31.4097C54.8767 31.6233 54.3782 31.748 54.3248 31.7124C54.2714 31.6589 54.3604 31.2494 54.5028 30.8221C54.6631 30.377 54.8946 29.2552 55.037 28.3293C55.2329 27.0117 55.2863 24.6792 55.2685 18.0734C55.2507 13.355 55.3041 9.45562 55.3931 9.3844C55.4821 9.31318 60.2718 9.29538 76.5815 9.3666ZM35.9674 35.683C36.1811 35.7364 36.7865 35.9322 37.3206 36.1281C37.8548 36.3061 39.0121 36.5554 39.9024 36.6622C40.7749 36.7869 42.2527 36.8759 43.143 36.8759C44.0511 36.8759 45.3865 36.7869 46.0809 36.6801C46.7931 36.591 47.897 36.3596 48.5202 36.1993C49.1434 36.0213 49.6776 35.8254 49.7132 35.7542C49.7488 35.683 49.9447 35.6295 50.1405 35.6295C50.3364 35.6295 50.4966 35.683 50.4966 35.7542C50.4966 35.8254 50.3898 36.1637 50.2473 36.5198C50.1049 36.8581 49.8556 37.7306 49.6954 38.4784C49.5351 39.2084 49.3571 40.8109 49.3037 42.0395C49.2146 43.731 49.2681 44.6925 49.5173 46.1347C49.6776 47.1496 50.0159 48.5562 50.2652 49.2507C50.4966 49.9273 50.6569 50.5148 50.6035 50.5326C50.5322 50.5683 49.909 50.3724 49.1968 50.1409C48.3244 49.8382 47.167 49.6246 45.6001 49.4821C43.9442 49.3397 42.6623 49.3397 41.0598 49.4643C39.4395 49.6068 38.4424 49.7848 37.3741 50.1587C36.5728 50.4436 35.8428 50.6039 35.7716 50.5326C35.6825 50.4436 35.8072 49.8916 36.0208 49.2863C36.2345 48.6809 36.5016 47.6482 36.6084 47.025C36.7331 46.384 36.8221 44.6569 36.8221 43.1968C36.8221 41.5765 36.7153 39.9919 36.555 39.1906C36.4126 38.4428 36.1099 37.4101 35.914 36.8759C35.7003 36.3239 35.5579 35.8254 35.5579 35.7364C35.5757 35.6473 35.7538 35.6295 35.9674 35.683ZM76.4925 38.1223L76.5815 38.514C76.6349 38.7455 76.6527 40.8465 76.5815 47.4701H68.124C60.2184 47.4701 59.5952 47.4345 58.5981 47.114C57.9215 46.9003 57.2983 46.5442 56.9066 46.1347C56.5683 45.7964 56.1765 45.191 56.0697 44.7993C55.9451 44.4076 55.856 43.4817 55.856 42.7517C55.856 42.0039 55.9629 41.1492 56.0697 40.8287C56.1943 40.5082 56.5683 39.9562 56.9244 39.5823C57.2983 39.1906 57.8859 38.8167 58.3488 38.6743C58.7761 38.5496 59.7376 38.3894 60.4676 38.3003C61.1977 38.2291 65.1148 38.1579 76.4925 38.1223ZM9.36619 38.4784H16.791C20.8863 38.4784 24.9103 38.5496 25.7471 38.6565C26.584 38.7455 27.5811 38.9591 27.9728 39.1372C28.3645 39.2974 28.8809 39.6001 29.1124 39.796C29.3438 39.9919 29.7177 40.5616 29.9492 41.0602C30.2697 41.7368 30.3765 42.2531 30.3765 43.2859C30.3765 44.3008 30.2697 44.8349 29.967 45.5115C29.7355 45.9923 29.2904 46.5977 28.9343 46.8469C28.596 47.0962 28.044 47.4167 27.7057 47.5591C27.2072 47.755 25.3554 47.8084 9.36619 47.9153V38.4784ZM54.8411 54.2184C55.037 54.2718 55.767 54.4854 56.4614 54.6991C57.6544 55.073 58.1707 55.0908 76.5815 55.3045L76.6171 65.8097C76.6527 71.5786 76.5993 76.3683 76.5281 76.4395C76.4391 76.5285 71.7919 76.5819 66.201 76.5819C60.5923 76.5819 55.9273 76.5819 55.8382 76.5819C55.7136 76.5819 55.6602 73.9289 55.6602 68.9612C55.6602 64.7769 55.5712 60.5037 55.4821 59.4888C55.3753 58.456 55.1794 57.0316 55.037 56.3194C54.8946 55.6072 54.6809 54.984 54.5919 54.9484C54.485 54.895 54.4316 54.6813 54.4316 54.4854C54.4494 54.1827 54.5384 54.1293 54.8411 54.2184ZM43.5525 55.9811C44.6208 56.0167 45.4399 56.1591 45.7782 56.3194C46.0631 56.4796 46.526 56.8536 46.7931 57.1562C47.078 57.4589 47.3629 58.0109 47.4697 58.367C47.5587 58.7409 47.719 59.5956 47.808 60.29C47.9148 60.9666 48.0039 64.9194 48.0039 76.5819H38.567V69.0146C38.567 64.5811 38.6382 60.8776 38.7629 60.0585C38.8697 59.3107 39.1012 58.367 39.2614 57.9753C39.4395 57.5836 39.7778 57.085 40.0093 56.8536C40.2407 56.6399 40.7571 56.3372 41.1488 56.1948C41.6652 55.9989 42.3418 55.9277 43.5525 55.9811Z" fill="#499462"/>
</svg>
